<svg id="图层_7" data-name="图层 7" xmlns="http://www.w3.org/2000/svg" viewBox="0 0 2160 2160"><defs><style>.cls-1{fill:#13ff00;}.cls-2{fill:#68468c;}.cls-3{fill:#953bf4;}.cls-4{fill:#7c3ece;}.cls-5{fill:#a443e8;}.cls-6{fill:#9b13ea;}.cls-7{fill:#761ac6;}.cls-8{fill:#7e14c9;}.cls-9{fill:#d62995;}.cls-10{fill:#b52485;}.cls-11{fill:#ae4df4;}.cls-12{fill:#a5257a;}.cls-13{fill:#f233b2;}.cls-14{fill:#9556d8;}.cls-15{fill:#883fc9;}.cls-16{fill:#5d19a5;}.cls-17{fill:#ac70f9;}.cls-18{fill:#8161aa;}.cls-19{fill:#4d366b;}</style></defs><polygon class="cls-1" points="686.613 641.972 693.636 648.733 696.198 651.978 698.961 655.477 699.26 656.127 699.759 656.828 701.872 662.021 702.314 663.107 703.092 666.048 703.986 668.117 706.125 673.069 706.847 675.153 710.087 684.823 711.205 688.997 712.485 693.99 712.676 694.732 714.044 701.587 715.12 706.407 715.389 707.611 715.871 711.894 716.981 721.169 717.944 729.222 719.341 748.616 720.405 764.138 721.792 785 722.636 799.358 723.926 821.939 732.449 825.734 742.957 829.513 753.237 831.841 760.306 832.528 766.325 832.02 774.883 829.791 782.949 825.423 803.652 816.434 811.091 816.785 819.934 819.207 831.148 825.545 840.994 834.327 852.489 847.624 882.217 887.262 919.189 946.083 936.333 977.251 970.729 1046.948 1012.443 1140.104 1054.083 1141.948 1134.778 1100.954 1183 1088.25 1181.004 1079.5 1179.311 1073.967 1175.5 1068.025 1167.637 1060.317 1133.831 1025.011 1106.917 988.289 1060.176 928.644 1034.199 897.543 990.005 847.624 953.077 809.369 923.819 782.678 908.522 769.889 906.378 761.526 902.361 753.222 892.628 739.84 869.889 721.854 841.333 697.222 807.073 673.278 775.122 655.711 757.563 649.341 738.5 646.583 723.908 642.45 708.812 640.944 690.056 640.944 688.313 641.229 687.479 641.5 686.613 641.972"/><polygon class="cls-2" points="1009.527 1190.789 1001.083 1178.61 998.467 1169.583 999.917 1161.286 1012.443 1140.104 1027.666 1120.166 1050.083 1097.26 1062.749 1087.817 1068.889 1085.462 1075.917 1083.75 1160.502 1081.313 1191.992 1080.879 1201.062 1082.307 1210.415 1085.667 1221.407 1092.333 1229.079 1098.801 1234.871 1104.679 1242.889 1113.833 1119.795 1174.778 1044.333 1197.312 1009.527 1190.789"/><polygon class="cls-1" points="1104.964 1418.755 1095.092 1460.75 1099.053 1475.255 1105.588 1491.359 1105.8 1512.274 1109.288 1520.539 1153.134 1580.763 1186.166 1638.21 1191.45 1648.361 1196.5 1651.389 1239.3 1658.965 1278.167 1709.151 1284.423 1722.977 1291 1745.845 1299.863 1783.238 1451 1831.498 1577.333 1859.667 1629 1744.667 1542.164 1645.843 1531.201 1641.641 1516.883 1614.745 1513.106 1606.834 1485.111 1539.556 1349.849 1427.106 1201.612 1464.297 1104.964 1418.755"/><polygon class="cls-3" points="1207.547 1381.955 1260.534 1464.297 1270.758 1482.752 1291.607 1468.292 1302.333 1518.556 1314.058 1503.908 1325.201 1552.236 1344.667 1520.444 1346.873 1540.06 1362.126 1531.226 1369.111 1586 1389.256 1532.259 1402.46 1549.953 1418.17 1514.852 1440.167 1577 1450.25 1553.667 1458.029 1566.991 1466.222 1559.444 1474.71 1581.002 1472.564 1537.05 1501.103 1594.338 1515.889 1608.002 1500.178 1553.761 1499.899 1528.076 1504.615 1497.046 1519.563 1437.509 1521.556 1427.111 1515.185 1388.842 1513.107 1356.999 1516.94 1268.667 1516.417 1256.718 1512.367 1246.498 1500.76 1229.826 1469.667 1192.312 1450.719 1176.554 1429.066 1165.479 1413.392 1161.3 1397.417 1161.065 1319.333 1164.326 1236.089 1214.924 1203.77 1306.342 1207.547 1381.955"/><path class="cls-4" d="M1239.57089,1399.805s22.38986,26.65073,26.90948,39.36732,5.03852,18.49437,5.03852,18.49437l-1.63743,1.55555,1.88042,1.2305-.243,1.97141,1.03667,1.87317,2.71,15.32888-4.5071,3.126Z"/><polygon class="cls-3" points="1004.119 1190.789 1097.456 1323.656 1087.087 1379.126 1087.341 1411.352 1122.36 1443.121 1124.995 1434.513 1130.573 1447.341 1177.948 1403.045 1197.611 1344.66 1226.335 1222.345 1300.176 1166.166 1357.889 1150.333 1343.736 1138.809 1327.917 1127.883 1310.197 1120.403 1280.725 1113.262 1256.111 1111.393 1229.684 1112.335 1208.33 1114.406 1188.897 1115.218 1169.667 1112 1135.456 1126.06 1116.917 1127.883 1121.297 1143.5 1105 1160.389 1074.674 1150.002 1078.333 1174.278 1069.667 1173.167 1064.167 1183.389 1035.222 1191.233 1004.119 1190.789"/><polygon class="cls-5" points="1245.313 1566.384 1259.29 1559.328 1265.337 1552.341 1270.758 1533.333 1268 1530.333 1273.7 1519.889 1273.7 1487.631 1268.778 1487.631 1273.021 1484.524 1266.845 1448.667 1262.778 1450.786 1264.611 1448.167 1262.583 1448.5 1264.556 1446.571 1265.278 1445.056 1251.833 1417.333 1238.222 1397.877 1230.647 1389.552 1226.783 1392.204 1228.333 1389.875 1226.333 1391.083 1226.542 1387.183 1220.667 1383.131 1217.086 1382.395 1213.849 1382.395 1212.962 1405.083 1256 1484.524 1252.667 1535.667 1245.313 1566.384"/><polygon class="cls-4" points="1179.015 1307.972 1179.432 1288.22 1185.649 1280.806 1185.649 1271.051 1190.629 1269.968 1190.629 1252.5 1197.101 1243.167 1198.333 1228.5 1211 1229.333 1225.355 1207.854 1222.556 1199.444 1218.981 1193.947 1229.341 1193.947 1234.139 1183.493 1246.941 1179.389 1245.731 1164.333 1242.889 1161.065 1255.667 1164.111 1267.249 1170.164 1278.444 1161.065 1279.778 1153.889 1285.111 1154.778 1291.893 1156.787 1300.667 1150.404 1311 1149.222 1321.444 1145.792 1318 1141.667 1316.167 1140.737 1323.222 1141.667 1328.022 1142.944 1334.333 1142.375 1337.583 1139.281 1338.25 1137.583 1338.083 1135.708 1337.487 1134.493 1341.674 1137.385 1343.736 1138.809 1346.339 1140.928 1285.14 1171.506 1225.355 1229 1181.765 1306.342 1179.015 1307.972"/><polygon class="cls-4" points="1204.331 1386.01 1237.167 1398.681 1217.667 1363.561 1221.446 1353.52 1218.167 1346.428 1221.999 1287.399 1233.173 1269.444 1231.222 1243.293 1239.147 1231.167 1247.125 1238.348 1246.84 1213.147 1267.249 1213.346 1267.249 1207.079 1271.67 1208.333 1271.235 1199.24 1289.714 1198.028 1308.96 1179.389 1326.387 1184.104 1328.715 1179.389 1345.434 1186.333 1343.167 1166.291 1367 1171.182 1376.167 1162 1393.667 1169.813 1398.167 1163.167 1404.114 1161.164 1387.444 1161.164 1343.333 1159 1249.372 1198.028 1218.981 1250.622 1204.331 1386.01"/><polygon class="cls-4" points="1186.5 1300.356 1162.891 1315.796 1149.024 1319.092 1166.505 1332.404 1162 1368.645 1161.366 1379.944 1161.551 1392.499 1187.47 1384.533 1186.5 1300.356"/><polygon class="cls-4" points="1088.5 1406.333 1089.083 1411.349 1091.282 1414.928 1121.539 1439.918 1125.524 1432.25 1132 1443.5 1133.895 1428.103 1111.917 1423.25 1103.303 1419.675 1094.583 1415.218 1090.75 1411.349 1088.5 1406.333"/><polygon class="cls-4" points="1163.856 1360.667 1162.25 1355.833 1162.891 1342.667 1160 1353.341 1157.333 1368.341 1159.5 1371.083 1156.391 1374.151 1155.083 1392.969 1167.5 1382.756 1163.856 1360.667"/><polygon class="cls-6" points="1177.03 1390.161 1177.393 1364.221 1178.608 1334.851 1181.391 1308.368 1187.79 1273.722 1197.239 1245.464 1211.527 1221.239 1223.937 1204.111 1246.685 1184.104 1272.887 1166.341 1301.872 1151.77 1323.067 1143.667 1340.941 1141.061 1354.111 1140.737 1368.333 1141.667 1378.333 1143.667 1386.778 1146.715 1391.556 1150.333 1395.444 1154.447 1397.417 1157.953 1397.417 1161.065 1393.995 1165.101 1387.935 1167.055 1380.055 1167.6 1368.427 1167.822 1357.219 1169.094 1345.066 1171.597 1332.191 1175.349 1314.332 1182.045 1297.099 1189.618 1285.556 1195.188 1274.554 1201.423 1264.468 1208.779 1254.839 1218.477 1246.895 1229.585 1239.147 1244.384 1233.173 1259.566 1227.981 1276.365 1223.872 1293.534 1220.132 1314.663 1218.389 1331.592 1215.935 1352.745 1214.554 1372.087 1213.446 1390.168 1212.835 1396.185 1211.211 1401.361 1208.976 1404.461 1205.862 1406.678 1201.612 1408.023 1198.22 1408.224 1193.556 1407.487 1188.081 1404.889 1184.053 1402.045 1180.988 1399.393 1178.44 1396.671 1177.372 1395.083 1177.006 1393.094 1177.03 1390.161"/><polygon class="cls-7" points="1177.111 1383.333 1172.458 1383.131 1166.929 1383.898 1162.125 1386.333 1157.184 1390.056 1151.983 1394.147 1147.611 1398.239 1143.424 1402.99 1139.524 1408.615 1135.593 1416.709 1133.075 1425.948 1131.632 1432.988 1130.698 1442.71 1130.403 1453.667 1130.733 1464.385 1132.224 1478.452 1134.276 1489.81 1138.124 1504.603 1143.784 1520.368 1150.387 1534.527 1160.315 1551.199 1168.896 1562.782 1178.028 1572.515 1186.884 1579.333 1196.995 1584.121 1204.108 1585.694 1210.446 1585.917 1218.552 1584.706 1225.908 1582.179 1232.666 1578.554 1238.446 1574.248 1243.54 1569.244 1248.829 1562.477 1255.369 1550.682 1258.56 1542.547 1261.333 1532.875 1263.293 1520.895 1263.293 1506.583 1262 1488.917 1260.083 1474.333 1256.917 1459.083 1252.917 1446.667 1246.778 1433.111 1241.611 1423.556 1233.583 1411.333 1226.5 1402.611 1222.5 1398.556 1218.944 1395.611 1216.778 1394.167 1214.261 1393 1213.104 1392.813 1212.75 1395.708 1211.75 1399.792 1210.125 1403.167 1207.417 1405.75 1204.167 1407.556 1199.626 1408.224 1196.444 1408.224 1192.611 1407.167 1188.081 1404.889 1184.053 1402.045 1180.25 1398.667 1178.167 1396.125 1177.167 1394.042 1177.006 1391.083 1177.042 1388.125 1177.111 1383.333"/><polygon class="cls-1" points="753.192 2002.402 784.667 2018.167 844.667 2020.333 931 1973 932.667 1966.499 933.556 1961.889 960.485 1908.816 995.922 1853.722 1026.498 1814.919 1073.655 1766.131 1089.723 1753.93 1093.778 1753.93 1100.796 1748.011 1129.09 1742.837 1148.445 1741.917 1157.522 1739.738 1167.804 1734.21 1191.124 1716.772 1212.279 1697.068 1209.542 1695.667 1206.333 1692.417 1203 1690.583 1198.833 1690 1189.167 1690 1183.5 1692.167 1184 1654.236 1179.333 1645.843 1168.833 1637 1136.5 1623 1129.354 1622.5 1125.713 1622.594 1122.333 1623.667 1113.137 1628.27 1057.833 1651.167 1045.32 1656.362 1043.444 1658.111 1041.667 1661.111 1039.473 1668.583 1032.765 1684.105 1024.574 1698.074 1015.5 1711.167 1012.679 1714 1004.5 1718.083 1002.667 1720.083 1001.333 1722.417 1000.25 1725.25 997.167 1731.25 983.977 1743.09 947.568 1773.323 918.25 1798.764 896.754 1820.555 852.158 1871.195 810.841 1922.247 785.018 1956.405 753.5 2000.556 752.39 2002.411 753.192 2002.402"/><polygon class="cls-2" points="690.355 2166.69 679.26 2094.333 680.053 2088.789 684.167 2080.667 721.802 2030.03 744.652 2005.583 751.792 2002.417 764.863 2002.283 814.671 2014.455 822.361 2012.773 872.474 1970.5 892.053 1962.547 911.899 1959.736 968.545 1961.837 1001.549 1926.825 1040.083 1896.083 1070.719 1852.746 1097.325 1822.377 1110.833 1816.25 1171.653 1813.128 1204.889 1802.966 1222.791 1799.583 1235.556 1799.154 1274.332 1802.832 1345 1749.111 1350.722 1747.833 1368 1751.222 1465.222 1786.111 1505.889 1797.333 1513.023 1801.223 1555 1831.222 1611.509 1749.615 1612.451 1746.25 1610.917 1742.167 1585.444 1711.611 1580 1708.167 1577.5 1707.722 1551.833 1673.889 1531.201 1641.641 1520.519 1621.575 1512.157 1604.553 1515.889 1608.002 1513.916 1601.191 1511.14 1591.606 1506.906 1576.988 1501.101 1556.948 1499.889 1552.722 1499.417 1533.25 1501.583 1513.833 1507 1486.75 1514.667 1456.333 1519.722 1438.042 1521.101 1429.778 1521.414 1423.792 1520.583 1417.408 1518.44 1405.523 1522.322 1411.844 1532.182 1418.523 1638.475 1462.703 1647.131 1466.874 1651.032 1469.922 1655.277 1475.261 1681.683 1523.532 1716.333 1577.707 1779.839 1652.934 1782.417 1656.917 1787.583 1687.25 1791.329 1706.668 1819.219 1796.223 1859.382 1923.701 1862.608 1937.241 1863.778 1948 1862.276 1960.356 1832.7 2042.251 1810.523 2108.455 1787 2187 690.355 2166.69"/><path class="cls-8" d="M1185,1399.27778s10.64629,8.82391,16.79537,6.24529a12.6614,12.6614,0,0,0,8.14907-10.18974c.5-3,4.18366-66.5,9.03628-92.66666s10.85261-53.39049,28.686-79.36192,44.86805-37.18659,59.27777-43.09463,43.47223-17.29345,83.97223-17.12679c4.83333-2.5,3.75-5.52777,2.19444-7.47222a88.33767,88.33767,0,0,0-6.77778-6.52778l-7.45833-3.29166s2.04167,3.79166.08333,3.91666-76.95833,8.95834-115.625,40.18056-47.44444,68.56628-47.44444,68.56628-18.41055,62.15074-18.64972,128.34778C1197.66667,1400.11111,1185,1399.27778,1185,1399.27778Z"/><path class="cls-9" d="M1261.534,1186s33.2122-23.05556,60.29929-30.5a233.83385,233.83385,0,0,1,51.94445-7.83333s-.5,9.05555-3.88889,11.33333-30.97222,4.9217-49.97222,12.54418-42.66667,19.48228-42.66667,19.48228S1270.29029,1195.16667,1261.534,1186Z"/><path class="cls-10" d="M1264.68452,1188.8184s37.437-29.51,108.79292-38.41422c-.31077,3.47082-1.775,7.27594-3.20262,8.297a8.39055,8.39055,0,0,1-3.16408,1.29541s-36.83282,5.78151-60.444,17.17024S1274.25792,1196.72012,1264.68452,1188.8184Z"/><path class="cls-11" d="M1183.58333,1398.11325s-4.951-.67622-4.9755-8.5614.39217-52.98277,3.94773-76.32286,13.06351-62.56232,26.42064-83.56232a167.47858,167.47858,0,0,1,49.80158-50.77778c19.44444-12.66667,45.88889-28.22222,64.30555-32.47222a219.6219,219.6219,0,0,1,38.08334-4.75l7.13889.41666,4.05555.68171s-36.63889,2.6794-51.30555,6.51274-42.03463,20-42.03463,20l-25.90982,16.38889L1237.5,1198.70833l-12.88889,14.2-9.77778,13.48055-7.826,13.11111-6.59061,16.58333-6.02778,19.02778-5.42056,21.76361-3.31944,16.35427-2.03778,16.10434-1.33333,24.88889-.70325,31.56625S1180.81928,1395.91026,1183.58333,1398.11325Z"/><path class="cls-9" d="M1135.29149,1452.92286c.835-9.44242,4.931-16.83782,10.70851-23.35129,6.82133-7.69022,17.719-14.90363,33.4324-11.89806,29.13025,5.57189,49.48355,58.82774,47.52558,91.91045s-9.50477,59.49-31.56471,60.953-43.2264-35.47022-49.88448-54.20364C1139.818,1500.32166,1133.29909,1475.4545,1135.29149,1452.92286Z"/><path class="cls-12" d="M1147.20239,1520.72338s30.31377,51.246,53.87546,37.19227c23.18431-13.82867,19.58882-51.10889,19.08882-64.26227s-4.95187-38.974-4.95187-38.974l3.19389,7.53874,3.51065,10.2811,2.20866,8.38816,1.91131,10.25581,1.04742,9.69016v6.5l-.78348,10.83575-1.69686,12.98719-2.02551,9.488-2.88262,8.93569-3.13835,6.59744-3.079,4.597-2.45341,2.75406-2.96288,2.52555-3.11036,1.91268-2.97087,1.26732-3.10174.84144-2.82613.46148H1192.841l-2.93026-.40027-2.67312-.72438-2.32921-.89924-2.5627-1.2685-3.408-2.12627-3.43963-2.64009-2.801-2.51-4.03653-4.179-3.995-4.793-3.18681-4.30667-2.806-4.1664-2.92086-4.73981-2.54714-4.51095-2.505-4.84448-2.06921-4.3907Z"/><path class="cls-13" d="M1204.80312,1436.17488l-3.355-4.202-3.48708-3.72563-2.361-2.18065-2.84861-2.28546-2.45936-1.68263-2.76015-1.57959-3.45807-1.53526-2.63017-.84613-3.49829-.72007-2.45874-.29861-1.9311-.1431h-2.88889l-2.42062.24166-2.69615.44251-2.946.76111-3.29921,1.22413-2.8184,1.38537-3.0459,1.88616-2.88719,2.20513-1.931,1.72934-1.92545,1.95246-1.92882,2.2022-2.77952,3.66154-1.86145,2.952-1.93038,3.82966-1.10842,2.73372-.74313,2.61687-.52575,2.33073-.63768,4.52289-.18577,4.01334-.07035,4.09887.30831,8.1322.85429,8.31823,1.87318,11.10848,2.52585,10.78005,2.59709,8.97712,3.09582,9.07221s-8.66706-56.90579-4.40216-69.15367,18.22222-26.66667,31.77778-25.33333S1204.80312,1436.17488,1204.80312,1436.17488Z"/><path class="cls-14" d="M1177.16667,1394.04167l-.16065-2.95834.07686-5.80186-3.16621-.2398h-2.75511l-3.31944.7468a89.24457,89.24457,0,0,0-22.33333,18.09269c-10.90789,12.13116-11.614,27.70585-11.614,27.70585C1145.62289,1415.5629,1159.75,1410,1159.75,1410l7.33333-1.68566h7.08334l9,1.18849L1185,1407.07888l3.08132-2.19S1178.43056,1398.31944,1177.16667,1394.04167Z"/><polygon class="cls-15" points="1252.389 1448.5 1258.083 1447.341 1258.556 1447.472 1259.083 1447.92 1260.194 1450.25 1261 1451.833 1261.722 1454.583 1260.306 1455.306 1261.306 1455.306 1260.861 1455.611 1261.722 1455.611 1262.056 1455.953 1264.556 1469.222 1266.083 1478.292 1266.983 1483.639 1264.194 1484.139 1266.389 1484.389 1265.111 1484.806 1267.111 1485.139 1267.417 1486.889 1267.722 1489.167 1268.083 1497.972 1268.083 1506.75 1268.083 1520.444 1266.958 1520.833 1267.542 1521.292 1265.708 1521.833 1268.083 1521.833 1266.792 1522.458 1267.833 1522.833 1266.75 1527.306 1266.354 1528.542 1265.771 1529.146 1264.896 1529.458 1263.854 1529.567 1261.479 1529.271 1252.389 1448.5"/><polygon class="cls-15" points="1261.125 1530.708 1264.639 1531.028 1265.167 1531.278 1265.556 1531.778 1265.861 1532.556 1265.861 1533.722 1261.125 1550.667 1259.222 1554.556 1258.111 1554.25 1258.722 1554.769 1258.222 1554.917 1258.556 1555.417 1256.771 1558.354 1253.375 1560.833 1246.639 1564.806 1251.028 1554.139 1261.125 1530.708"/><path class="cls-15" d="M1223.625,1400.91667l4.70833-2.411H1230.25l1.75.82767s11.44444,13.75125,15.77778,22.1534,3.62936,7.26327,3.62936,7.26327l-.96557.83333.76676-.16666-.19444.44444.59722-.20833.29167.20833,3.49019,7.83333-2.05964,2.26389,1.8125-.72916-.5.72916,1.3125-.45833,2.125,5.00058-.10416.74942-.375.5-.95834.375-3.9375.9164Z"/><path class="cls-16" d="M1244.22631,1429.57157l-16.05964,12.69159-3.82283,1.21728-5.01051-.30436S1241.78594,1484.5,1233.05964,1531.5s-36.79832,50.652-45.91508,45.83333-10.17447-5.94587-10.17447-5.94587l9.91368,7.94587,10.11077,4.78763,7.11329,1.57287,6.33794.22273,8.10619-1.21015,7.59667-2.6567,6.51717-3.49552,5.77976-4.3057,5.0944-5.00423,5.28944-6.767,6.53915-11.79477,3.2965-8.50034,2.71031-9.56414,1.85858-11.35863.05955-14.676L1262,1488.91667l-1.91667-14.58334-3.16666-15.25-4-12.41666-6.13889-13.55556-2.0407-3.77418Z"/><path class="cls-15" d="M1213.65669,1386.72842h1.2322l2.27778.32714,1.72222.38888,2.55674,1.61112-.94563,1.61111.94563-.44445.221.44445.83333-.61111,2.94444,2.73411,2.38889,2.76589v1.11548l-.5.88452-4.88889,3.08013-9.6031-5.77.26283-2.05319S1213.59347,1387.76045,1213.65669,1386.72842Z"/><path class="cls-16" d="M1179.08927,1397.13515S1187.75,1408.08333,1193.25,1410.5s12.41667,2.33333,14.75.45833a16.04094,16.04094,0,0,0,4.79167-7.70833,19.80983,19.80983,0,0,0-.48766-5.37286s-2.38959,9.02972-10.27388,10.01379S1179.08927,1397.13515,1179.08927,1397.13515Z"/><path class="cls-16" d="M1212,1401.36093s17.66667,16.67743,21.91667,26.74158-5.75,14.16065-5.75,14.16065l17.787-10.67615-5.01-9.04757-5.75783-8.76624-2.604-3.673-4.55375-5.60736-1.42577-1.75565-1.33541-1.37623-1.42927-1.44912-1.2409-1.25813-2.28347-1.909-1.36887-1.13359-2.16666-1.44444-2.42416-1.12383-.87254-.16926-.37691-.06108-.38878,3.03715-.52145,2.12925a4.14919,4.14919,0,0,1-.49385,1.58487C1211.84722,1401.43056,1212,1401.36093,1212,1401.36093Z"/><polygon class="cls-17" points="1004.119 1190.789 1119.156 1263.441 1147.202 1273.722 1180.697 1275.893 1159.861 1238.735 1178.607 1250.833 1177.006 1233.523 1183 1236.787 1170.408 1187.988 1208.833 1219.194 1199.333 1199 1208.167 1201.271 1200.667 1182.5 1183 1171.182 1207.007 1175.667 1220.5 1181.285 1213.077 1167.222 1212.333 1161.065 1218.889 1164.889 1232.66 1166.667 1232 1157 1226.335 1147.667 1215.111 1140.737 1197.778 1136.444 1217.889 1135.111 1232.111 1139.281 1246.111 1147.667 1256.444 1150.404 1270.5 1156.344 1262.5 1144.132 1245 1133.5 1264.685 1138 1284.167 1147.667 1288.765 1152.333 1296 1144.132 1296 1138.25 1299.667 1138.667 1304.333 1141.667 1308.372 1143.333 1306.583 1138.667 1301.5 1134.167 1309.479 1135.333 1317.656 1138.167 1325 1139 1329.875 1140.5 1330.875 1138.417 1324.5 1132.625 1333.375 1134.75 1327.833 1128.542 1309.479 1121.417 1288.583 1116.167 1278.333 1114.583 1265.583 1115.75 1254.75 1113.833 1206.222 1124.306 1187.222 1115.667 1169.667 1112 1180.667 1127.25 1182.167 1132.083 1135.456 1126.06 1116.917 1127.883 1141.222 1144.132 1168.747 1152.556 1118.556 1150.778 1109.222 1161.065 1117.778 1169.444 1078.778 1153.111 1108.111 1188.778 1078.333 1174.278 1069.667 1173.167 1077.583 1190.833 1097.667 1225.501 1032.488 1195.092 1004.119 1190.789"/><polygon class="cls-17" points="1064.598 1250.622 1138.494 1297.315 1155.083 1294.478 1178.479 1275.154 1127.697 1271.722 1064.598 1250.622"/><polygon class="cls-17" points="1229.341 1324.045 1229.341 1292.253 1237.287 1294.071 1229.341 1281.222 1235.111 1283.254 1233.314 1278.183 1237.287 1278.667 1239.667 1251.667 1250.562 1243.941 1260.068 1221.232 1282.482 1219.91 1279.678 1210.805 1284.111 1212.698 1284.111 1205 1291.269 1208.333 1302.156 1193.042 1357.167 1193.042 1353.567 1177.824 1360.833 1185.311 1360.833 1179.173 1372.361 1187.326 1380.333 1173.437 1398.333 1178.222 1402.333 1166.889 1408.476 1166.166 1407.935 1162.542 1415.167 1163.083 1423.845 1164.087 1429.066 1165.479 1450.719 1176.554 1469.667 1192.312 1429.066 1181.667 1437.618 1188.094 1444.667 1198.028 1425.667 1190.835 1413.5 1189.667 1417.452 1195.05 1404 1191.249 1393.167 1199.27 1381.167 1200.248 1387 1202.092 1391.167 1208.352 1379.833 1205.089 1362 1208.352 1345.434 1201.271 1345.434 1209.833 1333.375 1205.926 1332.667 1222.681 1305 1213.346 1301.872 1227.756 1284.333 1230.436 1282.998 1241.31 1277.843 1238.167 1275.692 1250.622 1263.417 1246.917 1260.534 1258.455 1253.333 1255.639 1255 1265.556 1259.783 1276.218 1251.556 1269.444 1247.333 1264.32 1250.333 1271.287 1252.091 1274.48 1249.715 1273.722 1245.324 1271.287 1246.84 1283.966 1242.167 1288.996 1243.833 1299.036 1236.88 1301.872 1233.667 1301.872 1234.583 1306.342 1229.341 1324.045"/><polygon class="cls-4" points="1272.346 1480.607 1288.713 1422.774 1292.647 1374.565 1319.191 1403.246 1315.205 1343.655 1337.163 1379.944 1348.455 1359.522 1356 1366.118 1362.663 1357.093 1370.564 1330.002 1397.468 1372.854 1410.173 1360.951 1423.054 1329.015 1441.249 1342.667 1443.577 1326.911 1451.399 1331.324 1462.646 1294.071 1471.566 1306.038 1486.778 1283.254 1493.803 1263.745 1494.307 1242.333 1503.889 1254.622 1503.889 1245.464 1503.167 1238.774 1501.999 1231.606 1512.367 1246.498 1516.417 1256.718 1516.94 1268.667 1508.167 1365.167 1511.477 1405.995 1514.666 1427.722 1512.333 1441.355 1492.5 1493.667 1497 1553.167 1515.889 1608.002 1471.833 1529.567 1462.333 1512.608 1471.667 1550.5 1474.637 1579.501 1466.222 1559.444 1458.667 1560.333 1449.167 1547.167 1440.167 1577 1428.167 1511.667 1418.908 1502.164 1402.46 1549.953 1393 1521.833 1382.71 1529.567 1372.361 1550 1362.126 1531.226 1346.873 1540.06 1349.833 1520.667 1349.167 1507.627 1325.201 1552.236 1321.99 1501 1314.24 1467.565 1303.747 1505.333 1300.047 1469.717 1299.167 1461.667 1294.333 1465.743 1293.613 1460.453 1272.346 1480.607"/><polygon class="cls-18" points="968.545 1961.837 1001.549 1926.825 1040.083 1896.083 1097.325 1822.377 1110.833 1816.25 1171.653 1813.128 1204.889 1802.966 1222.791 1799.583 1235.556 1799.154 1274.332 1802.832 1481 1826.778 1333.463 1880.495 1296.858 1911.014 1227 1937 1182.667 1954 1147.556 1957.444 1136 1958.074 1122.002 1961.837 1106.917 1967.083 1089.5 1972.583 1080.083 1974.5 1073.083 1975.167 1065.083 1975 1034.583 1970.083 1009.167 1966.083 993.5 1964.167 974.083 1962 968.545 1961.837"/><polyline class="cls-18" points="1395.623 1816.885 1364 1794.333 1333.463 1782.667 1314.444 1780.444 1308.222 1781.444 1278.222 1802.966 1295.556 1810 1395.623 1817.333"/><polygon class="cls-18" points="1624 1716.333 1598 1664.5 1598 1652 1601.5 1642.333 1611 1633.966 1626.667 1631.333 1651.993 1632.271 1689.667 1638.667 1671.167 1631.333 1655.278 1626.556 1633.083 1622.083 1613.833 1619.833 1595.833 1619.533 1577.417 1620.667 1563.536 1622.958 1557 1625.778 1563.536 1627.198 1568.667 1633.966 1569.778 1642.889 1568.222 1651.222 1563.536 1656.556 1557 1656.667 1550.111 1655.111 1563 1663.556 1574.556 1673 1598.444 1693.333 1616.754 1708.532 1624 1716.333"/><polygon class="cls-19" points="1380.677 1755.771 1378.556 1757.667 1377 1763.889 1377 1766.333 1412.778 1788.333 1459.444 1805.444 1501.444 1817.333 1550.111 1852.778 1558.333 1855.444 1574.095 1847.222 1631.222 1753.444 1631.222 1747.001 1626.5 1738.333 1594.833 1711.167 1581.667 1705.444 1575.184 1704.669 1578.222 1707.667 1583 1709.889 1586.889 1713 1599.333 1727.222 1612.083 1744.5 1612.451 1747.001 1611.509 1749.615 1608 1754.75 1555 1831.222 1519.611 1805.389 1514.333 1801.722 1509.5 1799.154 1502.444 1796.556 1485.167 1791.833 1472.833 1788.583 1452.417 1781.833 1428.167 1772.722 1405.556 1763.444 1391.111 1758.444 1381.611 1755.5 1380.677 1755.771"/><path class="cls-19" d="M735.92018,2014.92539,751,2011.33333h10.86844l47.46489,15.33334h15l50.26242-20.33334,44.99624-4.66666,42.88832,2.35546L1085.11871,2035l43.03048,7h64.60225l122.45372-21.66667,178.59735-18.66666L1636.50588,2011l53.16079-19,42.24047-80.98636,17.60675-124.69767L1743.66667,1683,1723,1620.86111l-6.66667-43.15409,66.08334,79.20965,8.91212,49.75116,71.27913,230.5735L1863.77778,1948l-1.50221,12.35582S1793.33333,2149,1787,2187s-1096.64486-20.31032-1096.64486-20.31032L679.26,2095.98653l.79268-7.19782,4.114-8.12212,37.63581-50.63613Z"/><polygon class="cls-19" points="1731.907 1639.211 1681.667 1617.333 1635.333 1608.002 1582.667 1606.656 1551.667 1615.667 1537.361 1627.198 1531.201 1641.641 1513.106 1606.834 1512.157 1604.553 1515.615 1606.958 1515.394 1606.294 1506.583 1575.874 1499.889 1552.722 1499.417 1533.25 1501.583 1513.833 1507 1486.75 1514.667 1456.333 1519.722 1438.042 1521.22 1427.497 1521.281 1422.77 1518.44 1405.523 1522.722 1412.389 1530.111 1417.667 1537.611 1421 1550.389 1426.167 1589.833 1442.667 1616.754 1453.711 1635.111 1461.333 1643.583 1465.164 1647.972 1467.389 1650.307 1469.242 1652.651 1471.684 1654.176 1473.876 1656.021 1476.411 1660.889 1483.944 1671.944 1505.167 1689.667 1536.667 1703.222 1558.778 1723.167 1586.5 1731.907 1639.211"/><polygon class="cls-19" points="1700.167 1617.667 1741.833 1659.667 1740.647 1631 1700.167 1617.667"/></svg>